HIERARCHY
ROOT root
{
	OFFSET 0.000000 0.000000 0.000000
	CHANNELS 6 Xposition Yposition Zposition Zrotation Yrotation Xrotation
	JOINT lhip
	{
		OFFSET 0.058581 -0.082280 -0.017664
		CHANNELS 3 Zrotation Yrotation Xrotation
		JOINT lknee
		{
			OFFSET 0.043451 -0.386469 0.008037
			CHANNELS 3 Zrotation Yrotation Xrotation
			JOINT lankle
			{
				OFFSET -0.014790 -0.426874 -0.037428
				CHANNELS 3 Zrotation Yrotation Xrotation
				JOINT ltoe
				{
					OFFSET 0.041054 -0.060286 0.122042
					CHANNELS 3 Zrotation Yrotation Xrotation
					End Site
					{
						OFFSET 0.000000 0.000000 0.000000
					}
				}
			}
		}
	}
	JOINT rhip
	{
		OFFSET -0.060310 -0.090513 -0.013543
		CHANNELS 3 Zrotation Yrotation Xrotation
		JOINT rknee
		{
			OFFSET -0.043257 -0.383688 -0.004843
			CHANNELS 3 Zrotation Yrotation Xrotation
			JOINT rankle
			{
				OFFSET 0.019056 -0.420046 -0.034562
				CHANNELS 3 Zrotation Yrotation Xrotation
				JOINT rtoe
				{
					OFFSET -0.034840 -0.062106 0.130323
					CHANNELS 3 Zrotation Yrotation Xrotation
					End Site
					{
						OFFSET 0.000000 0.000000 0.000000
					}
				}
			}
		}
	}
	JOINT lowerback
	{
		OFFSET 0.004439 0.124404 -0.038385
		CHANNELS 3 Zrotation Yrotation Xrotation
		JOINT upperback
		{
			OFFSET 0.004488 0.137956 0.026820
			CHANNELS 3 Zrotation Yrotation Xrotation
			JOINT chest
			{
				OFFSET -0.002265 0.056032 0.002855
				CHANNELS 3 Zrotation Yrotation Xrotation
				JOINT lowerneck
				{
					OFFSET -0.013390 0.211636 -0.033468
					CHANNELS 3 Zrotation Yrotation Xrotation
					JOINT upperneck
					{
						OFFSET 0.010113 0.088937 0.050410
						CHANNELS 3 Zrotation Yrotation Xrotation
						End Site
						{
							OFFSET 0.000000 0.000000 0.000000
						}
					}
				}
				JOINT lclavicle
				{
					OFFSET 0.071702 0.114000 -0.018898
					CHANNELS 3 Zrotation Yrotation Xrotation
					JOINT lshoulder
					{
						OFFSET 0.122921 0.045205 -0.019046
						CHANNELS 3 Zrotation Yrotation Xrotation
						JOINT lelbow
						{
							OFFSET 0.255332 -0.015649 -0.022946
							CHANNELS 3 Zrotation Yrotation Xrotation
							JOINT lwrist
							{
								OFFSET 0.265709 0.012698 -0.007375
								CHANNELS 3 Zrotation Yrotation Xrotation
								End Site
								{
									OFFSET 0.000000 0.000000 0.000000
								}
							}
						}
					}
				}
				JOINT rclavicle
				{
					OFFSET -0.082954 0.112472 -0.023707
					CHANNELS 3 Zrotation Yrotation Xrotation
					JOINT rshoulder
					{
						OFFSET -0.113228 0.046853 -0.008472
						CHANNELS 3 Zrotation Yrotation Xrotation
						JOINT relbow
						{
							OFFSET -0.260127 -0.014369 -0.031269
							CHANNELS 3 Zrotation Yrotation Xrotation
							JOINT rwrist
							{
								OFFSET -0.269108 0.006794 -0.006027
								CHANNELS 3 Zrotation Yrotation Xrotation
								End Site
								{
									OFFSET 0.000000 0.000000 0.000000
								}
							}
						}
					}
				}
			}
		}
	}
}
MOTION
Frames: 14
Frame Time: 0.033333
0.547668 0.216551 0.997037 89.257105 5.151560 99.427790 8.744213 4.639325 -8.232775 4.056807 -3.168948 -5.230215 -1.002569 11.687808 -0.904789 0.000000 -0.000000 0.000000 2.628541 -0.556578 -15.058612 -1.063254 2.657747 7.167814 3.953347 -8.984177 -4.220244 0.000000 -0.000000 0.000000 -6.114402 2.809821 7.215479 2.009223 -4.078715 4.176717 3.051721 3.143058 -9.887146 -3.668842 4.482903 -9.479702 10.099773 7.358876 0.746142 -11.438184 -35.864217 -3.792071 -27.466614 -31.843015 11.280136 16.419903 -39.457264 -9.902546 35.393243 -0.125676 -8.290263 19.050353 36.593177 4.423948 26.077072 40.343179 4.373309 2.304097 62.656282 21.491600 -23.448339 7.579254 5.616848 
0.548969 0.217322 0.997107 89.553172 5.122090 99.410969 8.703733 4.556734 -8.162642 4.031952 -3.339308 -5.267009 -1.070329 11.646682 -0.970842 0.000000 -0.000000 0.000000 2.538068 -0.629940 -14.882239 -1.057564 2.457911 7.128886 4.003487 -9.030454 -4.269815 0.000000 -0.000000 0.000000 -6.124868 2.605798 6.906484 2.078862 -4.327479 4.254254 3.115923 2.943643 -9.818468 -3.736492 4.438036 -8.970556 10.221445 7.737641 0.656780 -11.620170 -35.637550 -3.598037 -27.403746 -31.519047 11.100131 16.420441 -39.452277 -10.036569 35.410173 -0.298083 -8.209219 18.583325 36.142113 4.113978 25.850726 39.918032 4.156848 3.299177 63.423419 22.134528 -22.897600 7.931364 5.045645 
0.549975 0.218241 0.997075 89.547127 5.127655 99.203825 8.626492 4.617940 -7.799679 4.072747 -3.644208 -5.434542 -1.077438 11.874285 -1.110276 0.000000 -0.000000 0.000000 2.505944 -0.690203 -14.656108 -1.038484 2.603699 7.242517 3.837951 -9.171939 -4.332712 0.000000 -0.000000 0.000000 -5.965585 2.384094 6.889361 2.041140 -4.474447 4.289012 3.163741 2.834808 -9.861841 -3.729488 4.252706 -8.617109 10.090785 8.346380 0.901578 -11.874068 -35.460265 -3.553541 -27.175874 -31.047871 11.049509 16.207138 -39.519729 -10.377372 35.874192 -0.253394 -7.983237 18.013388 36.264503 3.875236 25.342232 40.223697 4.340180 4.758655 60.626310 22.584365 -21.855739 7.840610 3.734355 
0.550256 0.218906 0.997065 89.226055 5.105901 99.007654 8.491689 4.723148 -7.483512 4.121239 -3.719073 -5.527996 -1.142111 12.173286 -1.195590 0.000000 -0.000000 0.000000 2.472593 -0.678857 -14.573920 -1.055356 2.910084 7.374631 3.770484 -9.239699 -4.347050 0.000000 -0.000000 0.000000 -5.956397 2.271601 6.946349 1.918315 -4.459106 4.482763 3.232514 3.111801 -9.973826 -3.813459 3.974566 -8.554952 10.161536 8.624210 0.909970 -11.719238 -35.436525 -3.782735 -27.260699 -30.819982 11.144959 16.068262 -39.669571 -10.785670 36.298735 -0.128165 -7.916410 17.475220 36.577784 3.728778 23.912922 40.050551 3.872013 6.664877 58.039306 23.526008 -21.191473 8.205356 3.633768 
0.550018 0.219457 0.997021 88.970944 5.061738 99.127124 8.390697 4.763897 -7.602296 4.071603 -3.580788 -5.508719 -1.268157 12.278935 -1.248766 0.000000 -0.000000 0.000000 2.427193 -0.648973 -14.864791 -1.121259 3.080619 7.532403 3.890865 -9.232914 -4.350414 0.000000 -0.000000 0.000000 -5.982769 2.335641 7.003117 1.803287 -4.280094 4.167041 3.264931 3.337834 -9.752767 -3.923048 3.671548 -8.659866 10.462525 8.550567 0.440546 -11.653143 -35.337008 -4.098885 -27.484525 -30.935436 11.536357 16.016452 -40.138901 -10.727967 36.712502 -0.162510 -8.034090 17.115886 36.084679 3.447938 22.520452 38.699422 3.106511 8.575113 59.578975 24.924598 -21.639289 8.781888 3.489195 
0.550181 0.220148 0.996904 89.031932 5.064778 99.408748 8.332009 4.663124 -7.901790 4.100573 -3.401289 -5.529442 -1.373005 12.126091 -1.232888 0.000000 -0.000000 0.000000 2.396442 -0.681594 -15.134867 -1.157393 2.959046 7.483208 4.089635 -9.123461 -4.409550 0.000000 -0.000000 0.000000 -5.851917 2.462655 6.953687 1.860003 -4.191702 3.684159 3.299086 3.165342 -9.483007 -4.108451 3.432609 -8.803249 10.564066 8.537828 0.399791 -12.037750 -35.076088 -4.030198 -27.627322 -30.995559 11.917042 16.273623 -40.703469 -10.449301 37.043777 -0.569956 -7.986691 16.922297 35.001483 3.012977 21.743602 36.902094 2.676475 10.005202 63.738490 26.280174 -22.386966 9.543530 3.090164 
0.550734 0.221093 0.996737 89.534393 5.044960 99.634458 8.285416 4.412368 -8.168405 4.133044 -3.481517 -5.579149 -1.427370 11.908300 -1.233252 0.000000 -0.000000 0.000000 2.319491 -0.868466 -15.134100 -1.178454 2.595094 7.235617 4.184886 -9.065273 -4.449178 0.000000 -0.000000 0.000000 -5.702537 2.387415 6.928750 2.069866 -4.434043 3.355050 3.456223 2.900938 -9.413544 -4.498047 3.172824 -8.597967 10.541142 8.914986 0.621333 -12.553746 -34.791008 -3.724998 -27.589782 -30.906299 12.164970 16.273563 -41.065398 -10.218904 37.290164 -0.765765 -8.043165 16.598623 33.798635 2.454592 20.820534 35.148024 2.205204 13.401656 68.339430 29.413004 -22.719645 9.881389 3.262737 
0.551319 0.221836 0.996557 90.069858 4.980865 99.723250 8.247900 4.237568 -8.291583 4.089349 -3.678335 -5.644454 -1.564980 11.744958 -1.232231 0.000000 -0.000000 0.000000 2.209801 -0.981262 -15.044929 -1.197725 2.260716 7.135294 4.306565 -9.149042 -4.546329 0.000000 -0.000000 0.000000 -5.605259 2.156130 6.860500 2.255365 -4.795207 3.169584 3.614812 2.745616 -9.183883 -4.932268 2.825305 -8.146899 10.748092 9.239961 0.580602 -12.806998 -34.690979 -3.447175 -27.450648 -30.703226 12.046288 16.148845 -41.166086 -10.363338 37.447256 -0.753867 -8.658726 16.122667 32.870128 1.935231 19.606647 33.454011 1.482278 18.417096 71.635167 34.509227 -22.753316 11.063336 3.610317 
0.551580 0.222379 0.996658 90.453092 4.909578 99.705219 8.186732 4.116870 -8.335664 4.057423 -3.873837 -5.640279 -1.711101 11.714003 -1.245178 0.000000 -0.000000 0.000000 2.131064 -1.042307 -14.913027 -1.247999 2.086761 7.090559 4.309950 -9.306287 -4.570836 0.000000 -0.000000 0.000000 -5.402302 1.915695 6.944756 2.317933 -5.090188 2.917059 3.677462 2.599322 -8.991972 -5.239811 2.490048 -7.827038 10.834857 9.733200 0.795558 -13.067907 -34.508378 -3.361767 -27.420260 -30.508839 12.074300 16.207354 -41.248225 -10.938365 37.553473 -0.571739 -9.199962 15.723406 32.172004 1.527490 18.511362 32.287400 1.103495 22.483641 72.546048 38.400139 -22.416091 12.101207 3.866043 
0.551489 0.223235 0.996640 90.311403 4.847372 99.415183 8.056801 4.251779 -8.013013 4.036311 -4.120372 -5.647903 -1.789997 11.989490 -1.391966 0.000000 -0.000000 0.000000 2.023027 -1.095621 -14.707135 -1.221840 2.321927 7.220230 4.258895 -9.479457 -4.606442 0.000000 -0.000000 0.000000 -5.098984 1.800976 7.297868 2.218403 -5.138399 2.607522 3.688646 2.521868 -8.859953 -5.359284 2.161507 -7.424839 10.682439 10.350633 0.835396 -13.346032 -34.334818 -3.450998 -27.473249 -30.273350 12.125552 16.175324 -41.218285 -11.200351 38.100686 -0.558228 -8.941046 15.128764 31.978732 1.236486 17.430869 31.904643 1.042187 24.128125 70.235028 39.628316 -21.841070 12.317618 3.674616 
0.551662 0.223390 0.996591 90.085399 4.817455 99.307311 8.006618 4.471878 -7.938254 3.976623 -4.450630 -5.485618 -1.982535 12.394523 -1.609742 0.000000 -0.000000 0.000000 2.031666 -1.238476 -14.646563 -1.193489 2.730658 7.253754 4.123575 -9.631394 -4.609973 0.000000 -0.000000 0.000000 -4.945897 1.675512 7.055784 2.181714 -5.165706 2.752515 3.776113 2.536076 -8.825793 -5.557140 2.015825 -6.921308 10.479269 11.029707 0.726489 -13.637266 -34.273886 -3.427055 -27.352603 -29.912029 11.744897 15.680391 -41.457025 -11.099789 38.641080 -0.661701 -8.675243 14.673633 32.250147 1.332169 16.132906 32.330755 0.714020 24.261186 65.105067 39.298169 -21.471827 12.772756 4.189376 
0.551623 0.223431 0.996550 89.563173 4.784586 99.217308 7.950053 4.704640 -7.814833 3.909262 -4.584855 -5.321469 -2.091626 12.848289 -1.873894 0.000000 -0.000000 0.000000 2.021666 -1.286466 -14.681499 -1.150459 3.253713 7.316415 3.988047 -9.700347 -4.615757 0.000000 -0.000000 0.000000 -4.846315 1.623889 6.873551 2.124318 -4.983850 2.949664 3.885939 2.746942 -8.889888 -5.759182 1.808200 -6.720724 10.174389 11.566695 0.604185 -14.016726 -34.270122 -3.404481 -27.167048 -29.544975 11.385514 15.137472 -42.105070 -11.057338 38.988983 -0.464649 -8.444884 14.712582 32.625589 1.680376 14.405312 32.743694 -0.053673 24.510465 60.590122 39.193573 -20.452230 13.078347 5.257394 
0.551121 0.223501 0.996323 89.091706 4.759107 99.278263 7.890194 4.898010 -7.898412 3.857270 -4.512437 -5.151590 -2.139570 13.085437 -2.015513 0.000000 -0.000000 0.000000 1.979847 -1.242790 -14.896799 -1.106188 3.571980 7.381120 3.987530 -9.628947 -4.611356 0.000000 -0.000000 0.000000 -4.634401 1.667828 6.803402 2.044128 -4.710672 2.984450 3.917728 2.980073 -8.900661 -5.931364 1.679226 -7.059893 9.646110 11.790598 0.483532 -14.320300 -34.266941 -3.493090 -27.115822 -29.312207 11.454641 14.881774 -42.868645 -10.781255 39.317293 -0.451129 -8.301442 14.800433 32.673022 1.873824 13.023140 32.311767 -0.735048 24.983542 59.616444 39.366302 -20.344978 13.426401 5.814037 
0.550796 0.223699 0.996079 89.036928 4.716036 99.430552 7.848405 4.923597 -8.050073 3.820457 -4.354915 -5.178435 -2.249119 12.955893 -2.006907 0.000000 -0.000000 0.000000 1.893769 -1.192259 -15.026695 -1.104598 3.446584 7.262221 4.078968 -9.539770 -4.597547 0.000000 -0.000000 0.000000 -4.362234 1.653883 6.874803 2.060201 -4.534753 2.773918 3.966514 2.993601 -8.750123 -6.216452 1.729261 -7.303407 8.994911 11.720283 -0.255114 -14.464699 -34.004657 -3.572125 -27.370699 -29.158556 11.615640 15.320747 -43.923365 -10.639713 38.746416 -0.865936 -8.574679 14.677093 32.184338 1.732300 12.580064 31.462958 -1.234827 24.660090 61.823359 39.158875 -20.274321 14.119990 5.764206 
